<svg xmlns="http://www.w3.org/2000/svg" viewBox="0 0 100 100" width="100" height="100">
  <defs>
    <radialGradient id="bg" cx="50%" cy="35%" r="60%">
      <stop offset="0%" stop-color="#fff7ed"/>
      <stop offset="100%" stop-color="#fed7aa"/>
    </radialGradient>
    <radialGradient id="glow" cx="50%" cy="80%" r="60%">
      <stop offset="0%" stop-color="#fbbf24" stop-opacity="0.5"/>
      <stop offset="100%" stop-color="#fbbf24" stop-opacity="0"/>
    </radialGradient>
  </defs>
  <circle cx="50" cy="50" r="48" fill="url(#bg)"/>
  <!-- glow -->
  <ellipse cx="50" cy="44" rx="18" ry="22" fill="url(#glow)"/>
  <!-- candle body -->
  <rect x="40" y="58" width="20" height="24" rx="3" fill="#e2e8f0"/>
  <!-- candle top drip -->
  <path d="M40 58 Q40 54 44 54 L56 54 Q60 54 60 58" fill="#e2e8f0"/>
  <ellipse cx="50" cy="54" rx="10" ry="3" fill="#cbd5e1"/>
  <!-- wax drip -->
  <path d="M42 60 Q40 65 41 70" fill="none" stroke="#f1f5f9" stroke-width="3" stroke-linecap="round"/>
  <!-- wick -->
  <line x1="50" y1="54" x2="50" y2="46" stroke="#1e293b" stroke-width="2" stroke-linecap="round"/>
  <!-- outer flame -->
  <path d="M50 20 C44 28 38 34 40 42 C42 48 46 50 50 50 C54 50 58 48 60 42 C62 34 56 28 50 20Z" fill="#f97316"/>
  <!-- mid flame -->
  <path d="M50 28 C46 34 44 38 46 43 C47 47 50 48 50 48 C50 48 53 47 54 43 C56 38 54 34 50 28Z" fill="#fbbf24"/>
  <!-- inner flame -->
  <path d="M50 34 C48 37 48 40 50 43 C52 40 52 37 50 34Z" fill="#fef9c3"/>
  <!-- sparkles -->
  <circle cx="36" cy="36" r="2" fill="#fbbf24"/>
  <circle cx="64" cy="32" r="1.5" fill="#fbbf24"/>
  <circle cx="38" cy="48" r="1.5" fill="#f97316"/>
</svg>
