<svg xmlns="http://www.w3.org/2000/svg" viewBox="0 0 100 100" width="100" height="100">
  <defs>
    <radialGradient id="bg" cx="50%" cy="35%" r="60%">
      <stop offset="0%" stop-color="#fef9c3"/>
      <stop offset="100%" stop-color="#fde68a"/>
    </radialGradient>
  </defs>
  <circle cx="50" cy="50" r="48" fill="url(#bg)"/>
  <!-- starburst rays -->
  <polygon points="50,14 54,38 62,20 58,42 72,28 62,46 80,40 66,52 82,58 66,62 78,74 62,66 66,82 56,70 50,86 44,70 34,82 38,66 22,74 36,62 18,58 34,52 20,40 38,46 28,28 42,42 38,20 46,38" fill="#fbbf24" opacity="0.7"/>
  <!-- center burst -->
  <circle cx="50" cy="50" r="20" fill="#f97316"/>
  <circle cx="50" cy="50" r="14" fill="#fbbf24"/>
  <!-- number 14 -->
  <text x="50" y="56" text-anchor="middle" font-family="Arial" font-weight="900" font-size="14" fill="#7c2d12">14</text>
  <!-- small flames around -->
  <path d="M50 22 C48 25 46 27 47 30 C48 32 50 33 50 33 C50 33 52 32 53 30 C54 27 52 25 50 22Z" fill="#f97316"/>
  <path d="M50 77 C48 74 46 72 47 69 C48 67 50 66 50 66 C50 66 52 67 53 69 C54 72 52 74 50 77Z" fill="#f97316"/>
</svg>
