<svg xmlns="http://www.w3.org/2000/svg" viewBox="0 0 100 100" width="100" height="100">
  <defs>
    <radialGradient id="bg" cx="50%" cy="35%" r="60%">
      <stop offset="0%" stop-color="#1e1b4b"/>
      <stop offset="100%" stop-color="#312e81"/>
    </radialGradient>
  </defs>
  <circle cx="50" cy="50" r="48" fill="url(#bg)"/>
  <!-- stars scattered -->
  <circle cx="20" cy="22" r="1.5" fill="white" opacity="0.9"/>
  <circle cx="35" cy="16" r="1" fill="white" opacity="0.7"/>
  <circle cx="75" cy="20" r="2" fill="white" opacity="0.9"/>
  <circle cx="82" cy="35" r="1" fill="white" opacity="0.6"/>
  <circle cx="25" cy="45" r="1" fill="white" opacity="0.5"/>
  <circle cx="80" cy="60" r="1.5" fill="white" opacity="0.7"/>
  <circle cx="22" cy="70" r="1" fill="white" opacity="0.6"/>
  <circle cx="78" cy="78" r="1" fill="white" opacity="0.5"/>
  <circle cx="60" cy="15" r="1.5" fill="white" opacity="0.8"/>
  <!-- 4-pointed stars -->
  <path d="M30 32 L31.5 30 L33 32 L31.5 34Z" fill="white" opacity="0.9"/>
  <path d="M70 70 L71.5 68 L73 70 L71.5 72Z" fill="white" opacity="0.8"/>
  <path d="M18 58 L19 56.5 L20 58 L19 59.5Z" fill="white" opacity="0.7"/>
  <!-- moon crescent -->
  <circle cx="52" cy="50" r="26" fill="#fde68a"/>
  <circle cx="62" cy="44" r="22" fill="#312e81"/>
  <!-- 30 badge -->
  <circle cx="72" cy="72" r="13" fill="#fbbf24" stroke="#b45309" stroke-width="1.5"/>
  <text x="72" y="77" text-anchor="middle" font-family="Arial" font-weight="900" font-size="12" fill="#7c2d12">30</text>
</svg>
