<svg xmlns="http://www.w3.org/2000/svg" viewBox="0 0 100 100" width="100" height="100">
  <defs>
    <radialGradient id="bg" cx="50%" cy="35%" r="60%">
      <stop offset="0%" stop-color="#fff7ed"/>
      <stop offset="100%" stop-color="#ffedd5"/>
    </radialGradient>
  </defs>
  <circle cx="50" cy="50" r="48" fill="url(#bg)"/>
  <!-- diamond shape -->
  <!-- top facets -->
  <polygon points="50,18 32,42 50,36 68,42" fill="#67e8f9"/>
  <polygon points="50,18 50,36 68,42" fill="#a5f3fc"/>
  <polygon points="50,18 32,42 50,36" fill="#22d3ee"/>
  <!-- left facets -->
  <polygon points="32,42 50,36 50,82" fill="#0891b2"/>
  <polygon points="32,42 40,62 50,82" fill="#06b6d4"/>
  <!-- right facets -->
  <polygon points="68,42 50,36 50,82" fill="#0e7490"/>
  <polygon points="68,42 60,62 50,82" fill="#0891b2"/>
  <!-- center line -->
  <line x1="32" y1="42" x2="68" y2="42" stroke="white" stroke-width="1" opacity="0.5"/>
  <line x1="50" y1="36" x2="50" y2="82" stroke="white" stroke-width="1" opacity="0.3"/>
  <!-- shine -->
  <ellipse cx="43" cy="34" rx="4" ry="2.5" fill="white" opacity="0.6" transform="rotate(-30 43 34)"/>
  <!-- sparkles -->
  <path d="M20 30 L21 27 L22 30 L25 31 L22 32 L21 35 L20 32 L17 31Z" fill="#fbbf24"/>
  <path d="M75 22 L76 19.5 L77 22 L79.5 23 L77 24 L76 26.5 L75 24 L72.5 23Z" fill="#fbbf24"/>
  <path d="M78 68 L79 66 L80 68 L82 69 L80 70 L79 72 L78 70 L76 69Z" fill="#67e8f9"/>
  <!-- 100 badge -->
  <circle cx="72" cy="74" r="14" fill="#f97316" stroke="#ea580c" stroke-width="1.5"/>
  <text x="72" y="79" text-anchor="middle" font-family="Arial" font-weight="900" font-size="11" fill="white">100</text>
</svg>
