<svg xmlns="http://www.w3.org/2000/svg" viewBox="0 0 100 100" width="100" height="100">
  <defs>
    <radialGradient id="bg" cx="50%" cy="35%" r="60%">
      <stop offset="0%" stop-color="#fdf4ff"/>
      <stop offset="100%" stop-color="#fae8ff"/>
    </radialGradient>
  </defs>
  <circle cx="50" cy="50" r="48" fill="url(#bg)"/>
  <!-- left upper wing -->
  <path d="M50 46 C42 30 20 22 16 36 C12 50 28 58 50 54Z" fill="#c084fc"/>
  <!-- left lower wing -->
  <path d="M50 54 C36 56 18 68 22 78 C26 84 42 76 50 62Z" fill="#e879f9"/>
  <!-- right upper wing -->
  <path d="M50 46 C58 30 80 22 84 36 C88 50 72 58 50 54Z" fill="#a855f7"/>
  <!-- right lower wing -->
  <path d="M50 54 C64 56 82 68 78 78 C74 84 58 76 50 62Z" fill="#d946ef"/>
  <!-- wing patterns left upper -->
  <circle cx="32" cy="36" r="5" fill="#f0abfc" opacity="0.7"/>
  <circle cx="28" cy="48" r="3" fill="#f0abfc" opacity="0.6"/>
  <!-- wing patterns right upper -->
  <circle cx="68" cy="36" r="5" fill="#c4b5fd" opacity="0.7"/>
  <circle cx="72" cy="48" r="3" fill="#c4b5fd" opacity="0.6"/>
  <!-- body -->
  <ellipse cx="50" cy="50" rx="4" ry="18" fill="#581c87"/>
  <!-- head -->
  <circle cx="50" cy="32" r="5" fill="#581c87"/>
  <!-- antennae -->
  <path d="M48 28 C44 20 38 16 36 12" fill="none" stroke="#581c87" stroke-width="2" stroke-linecap="round"/>
  <path d="M52 28 C56 20 62 16 64 12" fill="none" stroke="#581c87" stroke-width="2" stroke-linecap="round"/>
  <circle cx="36" cy="12" r="3" fill="#e879f9"/>
  <circle cx="64" cy="12" r="3" fill="#e879f9"/>
  <!-- eyes -->
  <circle cx="48" cy="31" r="1.5" fill="white"/>
  <circle cx="52" cy="31" r="1.5" fill="white"/>
</svg>
