<svg xmlns="http://www.w3.org/2000/svg" viewBox="0 0 100 100" width="100" height="100">
  <defs>
    <radialGradient id="bg" cx="50%" cy="35%" r="60%">
      <stop offset="0%" stop-color="#0f172a"/>
      <stop offset="100%" stop-color="#1e293b"/>
    </radialGradient>
  </defs>
  <circle cx="50" cy="50" r="48" fill="url(#bg)"/>
  <!-- stars -->
  <circle cx="20" cy="20" r="1.5" fill="white" opacity="0.8"/>
  <circle cx="76" cy="16" r="1" fill="white" opacity="0.7"/>
  <circle cx="82" cy="30" r="1.5" fill="white" opacity="0.6"/>
  <circle cx="16" cy="40" r="1" fill="white" opacity="0.5"/>
  <circle cx="88" cy="50" r="1" fill="white" opacity="0.4"/>
  <path d="M28 26 L29 23 L30 26 L33 27 L30 28 L29 31 L28 28 L25 27Z" fill="white" opacity="0.8"/>
  <!-- moon crescent -->
  <circle cx="72" cy="26" r="14" fill="#fde68a"/>
  <circle cx="78" cy="22" r="11" fill="#1e293b"/>
  <!-- branch -->
  <path d="M10 74 Q30 68 50 72 Q70 76 90 70" fill="none" stroke="#78350f" stroke-width="8" stroke-linecap="round"/>
  <!-- owl body -->
  <ellipse cx="50" cy="58" rx="14" ry="16" fill="#92400e"/>
  <!-- owl feather pattern -->
  <path d="M38 58 Q50 52 62 58 Q50 64 38 58Z" fill="#78350f"/>
  <path d="M38 64 Q50 58 62 64 Q50 70 38 64Z" fill="#78350f"/>
  <!-- owl wings -->
  <ellipse cx="34" cy="60" rx="8" ry="12" fill="#78350f"/>
  <ellipse cx="66" cy="60" rx="8" ry="12" fill="#78350f"/>
  <!-- owl head -->
  <circle cx="50" cy="44" r="12" fill="#92400e"/>
  <!-- ear tufts -->
  <path d="M44 34 C42 28 40 26 42 24 C44 22 46 26 46 32Z" fill="#78350f"/>
  <path d="M56 34 C58 28 60 26 58 24 C56 22 54 26 54 32Z" fill="#78350f"/>
  <!-- face disc -->
  <ellipse cx="50" cy="46" rx="9" ry="8" fill="#fde68a" opacity="0.7"/>
  <!-- eyes -->
  <circle cx="45" cy="43" r="4.5" fill="#fde68a"/>
  <circle cx="55" cy="43" r="4.5" fill="#fde68a"/>
  <circle cx="45" cy="43" r="3" fill="#1e293b"/>
  <circle cx="55" cy="43" r="3" fill="#1e293b"/>
  <circle cx="45.8" cy="42.2" r="1.2" fill="white"/>
  <circle cx="55.8" cy="42.2" r="1.2" fill="white"/>
  <!-- beak -->
  <polygon points="50,47 47,51 53,51" fill="#f97316"/>
  <!-- feet on branch -->
  <line x1="44" y1="73" x2="40" y2="76" stroke="#78350f" stroke-width="2"/>
  <line x1="42" y1="73" x2="38" y2="78" stroke="#78350f" stroke-width="2"/>
  <line x1="56" y1="73" x2="60" y2="76" stroke="#78350f" stroke-width="2"/>
  <line x1="58" y1="73" x2="62" y2="78" stroke="#78350f" stroke-width="2"/>
</svg>
